<?xml version="1.0" encoding="UTF-8"?>
<svg version="1.1" xmlns="http://www.w3.org/2000/svg" width="1024" height="1024">
<path d="M0 0 C337.92 0 675.84 0 1024 0 C1024 337.92 1024 675.84 1024 1024 C686.08 1024 348.16 1024 0 1024 C0 686.08 0 348.16 0 0 Z " fill="#FEDD58" transform="translate(0,0)"/>
<path d="M0 0 C2.82601037 2.82601037 3.72785821 6.25951984 5.0625 9.94921875 C5.36613464 10.77362457 5.66976929 11.5980304 5.98260498 12.44741821 C6.64463092 14.24589077 7.30425475 16.04524892 7.96179199 17.84536743 C9.7391723 22.71101134 11.53302585 27.57055756 13.328125 32.4296875 C13.89203949 33.95723412 13.89203949 33.95723412 14.46734619 35.51564026 C17.22850464 42.97286811 20.05696261 50.40237739 22.921875 57.8203125 C23.32643921 58.8689296 23.73100342 59.91754669 24.14782715 60.99794006 C25.73290048 65.10300061 27.31925635 69.20750337 28.91748047 73.3074646 C47.19804754 120.20812894 49.41145078 171.24347902 29.27734375 218.125 C20.421909 236.8826112 7.03903586 252.53270013 -12.4375 260.5625 C-23.77246416 263.87744235 -39.94684211 264.26177184 -50.7890625 259.26171875 C-51.88347656 258.63716797 -51.88347656 258.63716797 -53 258 C-53.79148438 257.55269531 -54.58296875 257.10539062 -55.3984375 256.64453125 C-66.85355536 249.546925 -73.29079035 239.97413507 -77 227 C-80.40564026 205.20390233 -76.57496085 186.53688515 -64.16015625 168.296875 C-62.21249738 165.74391834 -60.16731773 163.36969884 -58 161 C-57.55060059 160.50822266 -57.10120117 160.01644531 -56.63818359 159.50976562 C-45.50581273 147.48636143 -32.51482948 138.32377844 -19.02050781 129.1550293 C-14.07214006 125.77964859 -9.23204178 122.27781046 -4.4375 118.6875 C-3.79490234 118.20796875 -3.15230469 117.7284375 -2.49023438 117.234375 C7.10115376 109.99823891 15.19219171 102.84651468 19 91 C19.54870048 86.59515446 19.51160836 83.14502824 17.6875 79.0625 C15.34759382 76.20261467 13.57657684 75.10590187 9.9375 74.4375 C-0.73237162 75.96176737 -7.34566208 85.45833685 -13.82421875 93.28125 C-22.78886919 103.97019624 -22.78886919 103.97019624 -28 106 C-31.6875 105.75 -31.6875 105.75 -35 105 C-37.45093458 100.09813084 -35.43990457 93.47372963 -33.95236206 88.49029541 C-32.53376665 84.48828815 -31.03368928 80.52762868 -29.49609375 76.5703125 C-28.9325529 75.08980481 -28.37024618 73.60882684 -27.80909729 72.12741089 C-26.33327823 68.24118071 -24.84102121 64.36147354 -23.34503174 60.48297119 C-21.85225754 56.60440871 -20.37497247 52.71996291 -18.89648438 48.8359375 C-16.36636334 42.19513655 -13.82360335 35.55928188 -11.27408409 28.92590714 C-8.5785527 21.90955993 -5.90773329 14.88384228 -3.24815369 7.85379028 C-1.10835635 2.21671271 -1.10835635 2.21671271 0 0 Z " fill="#FDDC58" transform="translate(243,356)"/>
<path d="M0 0 C1.32 0 2.64 0 4 0 C4.40089844 1.08265137 4.80179687 2.16530273 5.21484375 3.28076172 C13.35633159 25.25725372 21.56894914 47.20414359 29.93237305 69.09716797 C30.60339057 70.85382674 31.27437027 72.61049997 31.9453125 74.3671875 C32.27825821 75.23890594 32.61120392 76.11062439 32.95423889 77.00875854 C36.76609125 86.99610497 40.53930659 96.99799958 44.3125 107 C50.75081801 124.06396664 57.2189 141.11643351 63.70315552 158.16299438 C68.69288983 171.28140604 73.66772863 184.40525304 78.61938477 197.53808594 C81.73302312 205.79599251 84.8551855 214.05066876 87.97991943 222.30438232 C89.00921092 225.02434034 90.0371072 227.74482304 91.06494141 230.46533203 C92.73996701 234.89616611 94.42269457 239.32401058 96.11071777 243.74990845 C96.72950434 245.3753045 97.34608245 247.00154363 97.96008301 248.62875366 C101.10060805 256.94668944 104.4096332 265.13629744 108.1796875 273.19140625 C108.50038712 273.87789246 108.82108673 274.56437866 109.15150452 275.27166748 C114.15166595 285.74364737 119.95999624 295.4182437 130.5625 300.8125 C133.73814483 301.90954094 136.67101607 302.59402635 140 303 C140 303.99 140 304.98 140 306 C107.66 306 75.32 306 42 306 C42 305.01 42 304.02 42 303 C42.97839844 302.89042969 43.95679688 302.78085937 44.96484375 302.66796875 C59.43368111 300.96704899 59.43368111 300.96704899 72 294 C77.84765751 286.41384972 77.81689679 278.75232413 76.69140625 269.44921875 C74.13638514 255.6340161 68.66713675 242.41307859 63.75 229.3125 C63.048414 227.43520349 62.34700112 225.55784228 61.64575195 223.68041992 C54.96817791 205.8270087 48.18708003 188.01261932 41.37071228 170.21179199 C39.56065847 165.48182337 37.77383315 160.74367755 36 156 C36.02356567 157.97069458 36.02356567 157.97069458 36.04760742 159.98120117 C36.10285267 164.96306971 36.13668564 169.94491269 36.16479492 174.92700195 C36.17967015 177.06311631 36.19997658 179.19920135 36.22631836 181.33520508 C36.45269673 200.19563039 35.17095302 218.427651 29.875 236.625 C29.5756958 237.66567627 29.2763916 238.70635254 28.96801758 239.77856445 C20.98745415 266.36889717 5.73196145 289.53223571 -19 303 C-35.82489955 311.9004109 -57.76202416 315.39089967 -76.265625 309.96484375 C-88.92509115 305.49786069 -100.80587473 296.54153915 -106.86035156 284.25390625 C-113.69746387 269.17680177 -116.54207033 249.3515345 -111.375 233.25 C-110.63184404 231.4788548 -109.84008563 229.72727886 -109 228 C-108.57589844 227.02546875 -108.15179688 226.0509375 -107.71484375 225.046875 C-98.94216059 205.9864492 -82.9076539 190.96541661 -66 179 C-65.4332959 178.59426758 -64.8665918 178.18853516 -64.28271484 177.77050781 C-54.4313435 170.74661857 -44.22665695 164.27841809 -34.02416992 157.78076172 C-11.42455466 144.58152811 -11.42455466 144.58152811 5 125 C5.2352732 122.89145964 5.2352732 122.89145964 5.25 120.5625 C5.27578125 119.78003906 5.3015625 118.99757813 5.328125 118.19140625 C4.9211505 115.47339798 4.16729662 114.63956246 2 113 C-0.98400255 112.37544133 -2.98415487 112.50230406 -5.74609375 113.85546875 C-13.56094482 119.13577353 -19.52487513 127.32637325 -25.3190918 134.67236328 C-29.61472417 140.04831947 -34.45445185 143.31816382 -41.25 144.625 C-45.29908605 143.70475317 -46.66303123 142.43671878 -49 139 C-50.10573306 131.75882841 -48.2385767 125.57671488 -45.6171875 118.90625 C-45.25511703 117.94558121 -44.89304657 116.98491241 -44.52000427 115.99513245 C-43.32050795 112.82394914 -42.09792823 109.66221275 -40.875 106.5 C-40.02347644 104.26286155 -39.17349123 102.02513702 -38.32495117 99.78686523 C-36.51581429 95.02236266 -34.69714047 90.26165193 -32.87158203 85.50341797 C-30.17782061 78.47617918 -27.51372231 71.43802072 -24.85831451 64.39621353 C-8.24668883 20.34899128 -8.24668883 20.34899128 0 0 Z M-10 35 C-16.92610122 51.86337846 -23.26731294 68.93990186 -29.60205078 86.03149414 C-31.09122485 90.04923885 -32.58511327 94.06521243 -34.08029747 98.08072376 C-35.24379289 101.20706701 -36.40478038 104.334337 -37.56502151 107.46188927 C-38.11521131 108.9440473 -38.66617786 110.42591725 -39.21796799 111.90748024 C-39.98559968 113.96968921 -40.74981711 116.03313285 -41.51318359 118.09692383 C-41.94649994 119.26459793 -42.37981628 120.43227203 -42.82626343 121.6353302 C-45.69144392 129.62890647 -45.69144392 129.62890647 -46 138 C-45.08333333 140.08333333 -45.08333333 140.08333333 -43 141 C-38.3690927 141.18160421 -35.64023249 140.0325642 -32.1875 137.125 C-25.95699139 131.24533556 -20.23750962 124.79899295 -14.875 118.125 C-10.85470792 113.42522194 -6.46883083 110.37660131 -0.3125 109.4375 C3.58126256 110.09870496 5.26618551 111.1857792 8 114 C10.28791273 120.8637382 9.39960248 125.82331951 6.3125 132.1875 C2.68823284 139.18317848 -2.01876514 144.36463056 -8.25 149.125 C-8.85134766 149.59091553 -9.45269531 150.05683105 -10.07226562 150.53686523 C-16.87713076 155.75780938 -23.90798822 160.66110028 -30.94238281 165.56542969 C-55.95064685 183.00118663 -80.87868162 201.83821805 -87.5 233.40234375 C-88.89823403 243.46307452 -88.95645028 254.2281538 -86 264 C-85.53980469 265.55460937 -85.53980469 265.55460937 -85.0703125 267.140625 C-81.12899024 278.82868412 -73.86098083 287.1686009 -63 293 C-62.27296875 293.4125 -61.5459375 293.825 -60.796875 294.25 C-49.44142876 299.52478793 -33.13317148 298.86312108 -21.375 295.0625 C-6.98655256 288.92087733 3.50896698 278.953762 12 266 C12.49242187 265.29875 12.98484375 264.5975 13.4921875 263.875 C21.66750256 251.50155018 26.7438348 235.36173345 30 221 C30.14808105 220.35530762 30.29616211 219.71061523 30.44873047 219.04638672 C38.14306918 183.73856546 33.34126248 145.38847049 20.4375 112.0625 C19.7910587 110.3691208 19.14566194 108.67534254 18.5012207 106.98120117 C17.10594523 103.31801044 15.70449983 99.65726042 14.29882812 95.99804688 C11.80094648 89.48990912 9.32929498 82.9719162 6.859375 76.453125 C3.51886768 67.64019503 0.17607134 58.82815349 -3.17578125 50.01953125 C-3.7123233 48.60809845 -3.7123233 48.60809845 -4.25970459 47.16815186 C-5.80879603 43.09916995 -7.36163814 39.03414414 -9 35 C-9.33 35 -9.66 35 -10 35 Z " fill="#030301" transform="translate(253,321)"/>
<path d="M0 0 C1 1 1 1 1.11352539 4.78540039 C1.11336622 6.47282729 1.10766917 8.16025905 1.09765625 9.84765625 C1.09553383 11.17729652 1.09553383 11.17729652 1.09336853 12.53379822 C1.08775215 15.37673254 1.07519691 18.21958931 1.0625 21.0625 C1.05748711 22.98502491 1.05292384 24.90755104 1.04882812 26.83007812 C1.03777741 31.55341549 1.02050183 36.27669458 1 41 C0.01 41 -0.98 41 -2 41 C-2.35191406 40.31035156 -2.70382812 39.62070312 -3.06640625 38.91015625 C-6.49757177 32.3792955 -10.27438796 26.65404355 -15 21 C-15.53238281 20.32195312 -16.06476563 19.64390625 -16.61328125 18.9453125 C-29.29569596 3.38740997 -50.40984621 -5.67572089 -70 -8 C-75.10779802 -8.29066816 -80.19739214 -8.3250802 -85.3125 -8.3125 C-86.61123047 -8.32861328 -87.90996094 -8.34472656 -89.24804688 -8.36132812 C-112.41988247 -8.37285067 -135.56918988 -0.60737251 -152.59521484 15.55224609 C-159.8427758 23.02149122 -164.62460207 32.22836483 -168 42 C-168.24492187 42.67160156 -168.48984375 43.34320313 -168.7421875 44.03515625 C-172.46857984 56.05660004 -170.03690518 68.93689762 -164.52734375 79.94140625 C-147.9488731 108.1208871 -108.75344553 116.82059058 -79.88809204 126.54800415 C-66.04446556 131.21552847 -52.30204038 135.91855064 -39 142 C-38.26555664 142.33547852 -37.53111328 142.67095703 -36.77441406 143.01660156 C-16.8341938 152.26667273 5.44155399 166.4102624 13.72363281 187.87548828 C20.772307 207.7481712 20.87303113 227.05360361 11.8125 246.3125 C8.29577294 252.91763479 4.02595707 258.48026469 -1 264 C-1.59039063 264.68320312 -2.18078125 265.36640625 -2.7890625 266.0703125 C-23.2151312 288.29603483 -55.97407694 298.06661703 -85.234375 299.31640625 C-124.46111886 300.35247363 -157.5256528 286.63959913 -189 264 C-190 263 -190 263 -190.11352539 259.21459961 C-190.11336622 257.52717271 -190.10766917 255.83974095 -190.09765625 254.15234375 C-190.0962413 253.2659169 -190.09482635 252.37949005 -190.09336853 251.46620178 C-190.08775215 248.62326746 -190.07519691 245.78041069 -190.0625 242.9375 C-190.05748711 241.01497509 -190.05292384 239.09244896 -190.04882812 237.16992188 C-190.03777741 232.44658451 -190.02050183 227.72330542 -190 223 C-186.73548751 223.59339293 -186.14961755 223.81290655 -183.95703125 226.5546875 C-183.24933594 227.65039062 -182.54164063 228.74609375 -181.8125 229.875 C-181.01114936 231.0764511 -180.20639601 232.27563886 -179.3984375 233.47265625 C-178.99463867 234.07223145 -178.59083984 234.67180664 -178.17480469 235.28955078 C-159.56211403 262.38857629 -130.12181724 285.00967584 -97.41015625 291.109375 C-90.71684481 292.17304683 -84.14061177 292.29581678 -77.375 292.25 C-76.22515625 292.25773437 -75.0753125 292.26546875 -73.890625 292.2734375 C-52.3880757 292.22445675 -32.09685732 283.88242519 -16.6953125 268.82421875 C-5.18906888 256.76767652 0.54302675 242.60386206 0.17578125 225.9921875 C-0.46918871 211.34420316 -5.85898455 199.12221108 -16.08203125 188.58984375 C-21.60848919 183.68483489 -27.66620883 179.77719545 -34 176 C-35.10472656 175.33484375 -36.20945312 174.6696875 -37.34765625 173.984375 C-55.5922671 163.67857875 -75.78193189 156.9731813 -95.51135254 150.11010742 C-107.85496261 145.81373943 -120.01423646 141.22603192 -132 136 C-133.14807129 135.5062085 -133.14807129 135.5062085 -134.31933594 135.00244141 C-156.3059062 125.46798084 -178.6177963 111.0760819 -188 88 C-193.61844433 71.0276161 -193.65501517 53.86375975 -186.421875 37.41015625 C-182.95856863 30.72535094 -178.95854507 24.66226871 -174 19 C-173.43023437 18.33613281 -172.86046875 17.67226563 -172.2734375 16.98828125 C-132.46643728 -26.12185303 -49.4189658 -18.56781952 0 0 Z " fill="#030301" transform="translate(603,334)"/>
<path d="M0 0 C26.73 0 53.46 0 81 0 C81 0.99 81 1.98 81 3 C79.948125 3.11214844 79.948125 3.11214844 78.875 3.2265625 C71.13624303 4.29905328 65.61014812 6.33781486 60.7265625 12.64453125 C51.97280759 27.7496948 53.84790201 49.36437394 53.83886719 66.19873047 C53.83423042 68.22389311 53.82920463 70.2490549 53.82382202 72.2742157 C53.81077664 77.74794788 53.80426825 83.22166784 53.79981136 88.69541311 C53.79686722 92.12624999 53.79275993 95.55708363 53.78830719 98.98791885 C53.77465151 109.75420803 53.76497605 120.52048968 53.7611053 131.28678691 C53.75663244 143.65498552 53.73911225 156.02307319 53.7101047 168.39123809 C53.68838302 177.99089746 53.67839542 187.59052586 53.67706418 197.19020951 C53.67602342 202.90510792 53.67027303 208.61990179 53.65224457 214.33477402 C53.63558189 219.7209874 53.63369516 225.10701968 53.64238358 230.49324989 C53.64314439 232.45134408 53.63894049 234.40944875 53.62892532 236.36751747 C53.57985186 246.57453795 53.97407657 256.58566131 55.27227783 266.71829224 C55.38022572 267.60100229 55.48817361 268.48371235 55.59939265 269.39317119 C56.73410067 277.36562957 58.97736016 286.31195126 65 292 C70.16360518 295.3886159 74.8880989 296.56343564 81 297 C81 297.99 81 298.98 81 300 C54.27 300 27.54 300 0 300 C0 299.01 0 298.02 0 297 C0.78503906 296.85304688 1.57007813 296.70609375 2.37890625 296.5546875 C9.2342749 295.09108732 14.56881215 293.66000464 19 288 C32.73544819 266.16193726 27.30194221 227.62719845 27.26865101 202.76256108 C27.26350371 197.69794216 27.2683063 192.63332962 27.27142334 187.56871033 C27.27503836 179.07061439 27.27032963 170.57255348 27.26074219 162.07446289 C27.24986599 152.32293483 27.25338724 142.5714905 27.264395 132.81996447 C27.27354305 124.36985987 27.27471672 115.91978011 27.26951766 107.46967214 C27.26643839 102.45686472 27.26587451 97.44409632 27.27259064 92.43129158 C27.35357646 66.7495842 27.35357646 66.7495842 26.17089844 41.10327148 C26.10183414 40.12551538 26.03276985 39.14775927 25.9616127 38.14037418 C24.96515143 26.66351247 22.72722844 16.42143795 14.9375 7.6875 C10.29256317 5.01913203 5.20951214 4.0967394 0 3 C0 2.01 0 1.02 0 0 Z " fill="#000000" transform="translate(649,327)"/>
<path d="M0 0 C4.18064472 -0.19844229 8.35876999 -0.34321495 12.54272461 -0.43945312 C13.9641088 -0.47957871 15.38516486 -0.53409912 16.80541992 -0.60351562 C28.44484861 -1.15796827 28.44484861 -1.15796827 31.96728516 1.46484375 C33.40271614 3.60480385 34.20750637 5.5498822 35 8 C35.30518555 8.79196777 35.61037109 9.58393555 35.92480469 10.39990234 C37.98227913 16.30025329 38.51241438 21.91003265 38.4375 28.125 C38.42847656 29.03660889 38.41945313 29.94821777 38.41015625 30.88745117 C37.93696653 49.65238098 30.76207333 67.19434998 18 81 C17.56123535 81.49032715 17.1224707 81.9806543 16.67041016 82.48583984 C-5.19379887 106.73550639 -36.89284873 119.01116919 -66.90625 129.89453125 C-67.56743332 130.13461411 -68.22861664 130.37469696 -68.90983582 130.62205505 C-72.09266913 131.77485721 -75.27907913 132.91349092 -78.47387695 134.03295898 C-93.56761787 138.87477659 -93.56761787 138.87477659 -106 148 C-106.75085106 150.41263295 -106.75085106 150.41263295 -106 153 C-100.74068029 158.64821307 -94.15577964 160.26624042 -86.9375 162.5 C-57.29541609 171.88859513 -35.6426189 183.46124309 -18.4375 210.0625 C-17.56365159 211.394799 -16.68863353 212.72633151 -15.8125 214.05712891 C-14.04406838 216.74611898 -12.28088396 219.43841321 -10.52294922 222.13427734 C7.58928543 250.32028973 7.58928543 250.32028973 29 276 C29.78890625 276.85207031 30.5778125 277.70414063 31.390625 278.58203125 C41.2009266 288.87050793 51.7731456 295.48650485 66 297 C66 297.99 66 298.98 66 300 C58.98922119 300.10157378 51.97863275 300.17153861 44.96728516 300.21972656 C42.58309843 300.23981893 40.19896085 300.26709781 37.81494141 300.30175781 C34.38431662 300.35037859 30.95434445 300.37299312 27.5234375 300.390625 C26.46071625 300.41127014 25.397995 300.43191528 24.30307007 300.45318604 C18.17767637 300.45503558 14.68580379 300.04826644 10 296 C9.41734375 295.52820313 8.8346875 295.05640625 8.234375 294.5703125 C-3.21964754 283.4177116 -11.31742887 268.50278509 -19.93652344 255.18408203 C-25.61055355 246.42867495 -31.32790457 237.70137686 -37.04882812 228.9765625 C-38.28586447 227.08943198 -39.52169 225.20150674 -40.75585938 223.3125 C-55.654979 200.52770536 -70.85258483 181.08324591 -94.55859375 166.96264648 C-108.04485575 158.86543275 -108.04485575 158.86543275 -110 153 C-110.52390177 149.66012619 -110.60580729 147.18218265 -109.03515625 144.1171875 C-99.3804988 131.46625705 -80.44369294 125.13520351 -66.39257812 118.52905273 C-54.76750855 113.04246135 -43.45867076 107.02144839 -32.875 99.6875 C-32.21177734 99.22875488 -31.54855469 98.77000977 -30.86523438 98.29736328 C-24.3865954 93.71897958 -18.60736529 88.59897103 -13 83 C-12.26265625 82.27425781 -11.5253125 81.54851562 -10.765625 80.80078125 C3.49986291 65.84413598 9.39417965 46.46604636 9.30249023 26.15795898 C9.07217185 16.67205534 6.3040328 9.78433591 1 2 C0.505 1.01 0.505 1.01 0 0 Z " fill="#020201" transform="translate(824,327)"/>
<path d="M0 0 C1.66804062 4.07745463 0.22090036 6.88425917 -1.28564453 10.85717773 C-1.54081345 11.53913712 -1.79598236 12.2210965 -2.05888367 12.92372131 C-2.90649609 15.18107356 -3.76953731 17.43218989 -4.6328125 19.68359375 C-5.22855402 21.26063523 -5.82333716 22.83803904 -6.41720581 24.41578674 C-7.98714158 28.57870093 -9.57024569 32.73648751 -11.15606689 36.89337158 C-12.7501155 41.07886626 -14.33149391 45.26913883 -15.9140625 49.45898438 C-18.24877778 55.63459742 -20.58926137 61.80797389 -22.93798828 67.97827148 C-23.19898378 68.66615973 -23.45997929 69.35404799 -23.72888374 70.06278133 C-24.95644794 73.29208249 -26.19889842 76.51354149 -27.48260498 79.72097778 C-27.93419983 80.85856537 -28.38579468 81.99615295 -28.85107422 83.16821289 C-29.24769257 84.15068497 -29.64431091 85.13315704 -30.052948 86.145401 C-31.76940624 91.31914011 -32 96.58577775 -32 102 C-26.19716656 102.46422668 -23.50237569 101.67540872 -19 98 C-13.41382372 92.94867039 -8.66758877 87.29968219 -3.98046875 81.41796875 C-2.39729029 79.48505461 -0.80859665 77.71731101 1 76 C1.99 76.495 1.99 76.495 3 77 C2.401875 77.53625 1.80375 78.0725 1.1875 78.625 C-1.107558 80.88121039 -1.107558 80.88121039 -2.28515625 83.70703125 C-6.93828368 92.64230785 -15.18910312 102.79484644 -25 106 C-29.13370402 106.79494308 -30.35070631 106.4234524 -33.875 104.125 C-36.86735965 99.72447111 -36.55390265 96.19646569 -36 91 C-35.08076603 87.29133932 -33.76251585 83.79327258 -32.37109375 80.23828125 C-31.98961182 79.22480118 -31.60812988 78.21132111 -31.21508789 77.16712952 C-29.97175007 73.87597709 -28.70522269 70.59432782 -27.4375 67.3125 C-26.57233919 65.03972346 -25.70849961 62.76644356 -24.84594727 60.49267578 C-23.09552553 55.88712062 -21.33519611 51.28554288 -19.56640625 46.68701172 C-17.54152456 41.4201753 -15.53799527 36.14570553 -13.54771423 30.8657074 C-12.17221312 27.2173838 -10.79006702 23.57160778 -9.40579224 19.92660522 C-8.76164163 18.22916514 -8.11911694 16.53110713 -7.47824097 14.83242798 C-6.5954341 12.49748811 -5.70349671 10.16626313 -4.80859375 7.8359375 C-4.55110352 7.14991959 -4.29361328 6.46390167 -4.02832031 5.75709534 C-2.22904247 1.11452123 -2.22904247 1.11452123 0 0 Z " fill="#131106" transform="translate(240,359)"/>
<path d="M0 0 C0.66 0.33 1.32 0.66 2 1 C1.401875 1.53625 0.80375 2.0725 0.1875 2.625 C-2.15862814 4.92060147 -2.15862814 4.92060147 -3.375 8.0625 C-5.36831591 11.66580184 -7.24275746 12.49710298 -11 14 C-9.42219077 10.28954753 -7.09296752 7.70093616 -4.375 4.75 C-3.55773437 3.85796875 -2.74046875 2.9659375 -1.8984375 2.046875 C-1.27195313 1.37140625 -0.64546875 0.6959375 0 0 Z " fill="#201C0B" transform="translate(241,435)"/>
<path d="M0 0 C0.66 0.33 1.32 0.66 2 1 C2 1.66 2 2.32 2 3 C0.35546875 4.4375 0.35546875 4.4375 -1.8125 6 C-2.87404297 6.7734375 -2.87404297 6.7734375 -3.95703125 7.5625 C-5.62080729 8.73318754 -7.30730211 9.87153474 -9 11 C-6.92623208 6.33402219 -4.25832657 2.83888438 0 0 Z " fill="#0F0D05" transform="translate(247,431)"/>
</svg>
